<?xml version="1.0" encoding="UTF-8"?>
<svg width="166.18mm" height="38.842mm" version="1.1" viewBox="0 0 166.18 38.842" xmlns="http://www.w3.org/2000/svg" xmlns:cc="http://creativecommons.org/ns#" xmlns:dc="http://purl.org/dc/elements/1.1/" xmlns:osb="http://www.openswatchbook.org/uri/2009/osb" xmlns:rdf="http://www.w3.org/1999/02/22-rdf-syntax-ns#" xmlns:xlink="http://www.w3.org/1999/xlink">
 <metadata>
  <rdf:RDF>
   <cc:Work rdf:about="">
    <dc:format>image/svg+xml</dc:format>
    <dc:type rdf:resource="http://purl.org/dc/dcmitype/StillImage"/>
    <dc:title/>
   </cc:Work>
  </rdf:RDF>
 </metadata>
 <g transform="translate(-15.993 -86.327)">
  <g fill="#000000">
   <text transform="scale(.51758 1.9321)" x="83.884018" y="70.542984" font-family="Minsk" font-size="55.611px" stroke-width=".26459" style="font-variant-caps:normal;font-variant-east-asian:normal;font-variant-ligatures:normal;font-variant-numeric:normal;line-height:1.25" xml:space="preserve"><tspan x="83.884018" y="70.542984" font-family="Minsk" font-size="55.611px" stroke-width=".26459" style="font-variant-caps:normal;font-variant-east-asian:normal;font-variant-ligatures:normal;font-variant-numeric:normal"/></text>
   <text x="28.063299" y="176.61169" font-family="Minsk" font-size="10.583px" stroke-width=".26458" style="font-variant-caps:normal;font-variant-east-asian:normal;font-variant-ligatures:normal;font-variant-numeric:normal;line-height:1.25" xml:space="preserve"><tspan x="28.063299" y="176.61169"/></text>
   <text x="87.3125" y="142.08124" font-family="'Century Gothic'" font-size="10.583px" stroke-width=".26458" style="font-variant-caps:normal;font-variant-east-asian:normal;font-variant-ligatures:normal;font-variant-numeric:normal;line-height:1.25" xml:space="preserve"><tspan x="87.3125" y="142.08124" font-family="'Century Gothic'" font-size="10.583px" stroke-width=".26458" style="font-variant-caps:normal;font-variant-east-asian:normal;font-variant-ligatures:normal;font-variant-numeric:normal"/></text>
  </g>
  <g transform="matrix(1.3961 0 0 1.3961 -1.1107 -24.006)" fill="#37c871">
   <g transform="matrix(3.2587 0 0 3.2587 -27.672 -178.51)" stroke-width=".21981">
    <path d="m28.353 81.103v0.36164q0.22301-0.22301 0.48219-0.33452 0.25918-0.1115 0.55452-0.1115 0.64192 0 1.091 0.4852 0.44904 0.48521 0.44904 1.2447 0 0.73233-0.46411 1.2266-0.46411 0.49123-1.1 0.49123-0.28329 0-0.5274-0.0994-0.24411-0.10247-0.48521-0.33151v1.546h-0.81671v-4.4784zm0.86493 0.67507q-0.38877 0-0.64493 0.2652-0.25616 0.26521-0.25616 0.69316 0 0.43698 0.25616 0.70822 0.25616 0.26822 0.64493 0.26822 0.37671 0 0.63288-0.27425 0.25918-0.27425 0.25918-0.69918 0-0.42192-0.25315-0.69014-0.25315-0.27123-0.6389-0.27123z" style="font-variant-caps:normal;font-variant-east-asian:normal;font-variant-ligatures:normal;font-variant-numeric:normal"/>
    <path d="m34.895 82.98h-2.643q0.05726 0.34959 0.30438 0.55753 0.25014 0.20493 0.63589 0.20493 0.4611 0 0.7926-0.32246l0.69315 0.32548q-0.25918 0.36767-0.62082 0.54548-0.36164 0.17479-0.85891 0.17479-0.77151 0-1.2567-0.4852-0.48521-0.48822-0.48521-1.2206 0-0.75042 0.48219-1.2447 0.48521-0.49726 1.2145-0.49726 0.77452 0 1.2597 0.49726 0.48521 0.49424 0.48521 1.3079zm-0.82576-0.64795q-0.08137-0.27425-0.32247-0.44603-0.23808-0.17178-0.55452-0.17178-0.34356 0-0.60274 0.19288-0.16274 0.12055-0.30137 0.42493z" style="font-variant-caps:normal;font-variant-east-asian:normal;font-variant-ligatures:normal;font-variant-numeric:normal"/>
    <path d="m38.849 82.98h-2.643q0.05726 0.34959 0.30438 0.55753 0.25014 0.20493 0.63589 0.20493 0.4611 0 0.7926-0.32246l0.69315 0.32548q-0.25918 0.36767-0.62082 0.54548-0.36164 0.17479-0.8589 0.17479-0.77151 0-1.2567-0.4852-0.48521-0.48822-0.48521-1.2206 0-0.75042 0.48219-1.2447 0.48521-0.49726 1.2145-0.49726 0.77452 0 1.2597 0.49726 0.48521 0.49424 0.48521 1.3079zm-0.82575-0.64795q-0.08137-0.27425-0.32247-0.44603-0.23808-0.17178-0.55452-0.17178-0.34356 0-0.60274 0.19288-0.16274 0.12055-0.30137 0.42493z" style="font-variant-caps:normal;font-variant-east-asian:normal;font-variant-ligatures:normal;font-variant-numeric:normal"/>
    <path d="m39.325 81.103h0.7052v0.41288q0.11452-0.24411 0.30438-0.37069 0.18986-0.12657 0.41589-0.12657 0.15973 0 0.33452 0.0844l-0.25616 0.70822q-0.14466-0.0723-0.23808-0.0723-0.18986 0-0.32247 0.23507-0.12959 0.23507-0.12959 0.92219l3e-3 0.15973v1.326h-0.81671z" style="font-variant-caps:normal;font-variant-east-asian:normal;font-variant-ligatures:normal;font-variant-numeric:normal"/>
    <path d="m43.918 81.103h0.81973v3.2789h-0.81973v-0.34658q-0.2411 0.22904-0.4852 0.33151-0.2411 0.0994-0.52438 0.0994-0.63589 0-1.1-0.49123-0.46411-0.49425-0.46411-1.2266 0-0.75945 0.44904-1.2447 0.44904-0.4852 1.091-0.4852 0.29534 0 0.55452 0.1115 0.25918 0.11151 0.47918 0.33452zm-0.86493 0.67507q-0.38274 0-0.63589 0.27123-0.25315 0.26822-0.25315 0.69014 0 0.42493 0.25616 0.69918 0.25918 0.27425 0.63589 0.27425 0.38877 0 0.64493-0.26822 0.25616-0.27124 0.25616-0.70822 0-0.42795-0.25616-0.69316-0.25617-0.2652-0.64795-0.2652z" style="font-variant-caps:normal;font-variant-east-asian:normal;font-variant-ligatures:normal;font-variant-numeric:normal"/>
    <path d="m48.779 81.766-0.68411 0.37672q-0.19288-0.20192-0.38274-0.28028-0.18685-0.0784-0.44-0.0784-0.4611 0-0.7474 0.27726-0.28329 0.27424-0.28329 0.7052 0 0.41891 0.27425 0.68411 0.27425 0.26521 0.72028 0.26521 0.55151 0 0.8589-0.37671l0.64795 0.44301q-0.5274 0.68411-1.4888 0.68411-0.86493 0-1.3562-0.51233-0.48822-0.51233-0.48822-1.1994 0-0.47617 0.23808-0.87699t0.66301-0.62986q0.42794-0.22904 0.95534-0.22904 0.48822 0 0.87699 0.19589 0.38877 0.19287 0.63589 0.5515z" style="font-variant-caps:normal;font-variant-east-asian:normal;font-variant-ligatures:normal;font-variant-numeric:normal"/>
   </g>
   <g transform="matrix(3.2587 0 0 3.2587 -27.672 -178.51)" stroke-linecap="round" stroke-linejoin="round" stroke-width=".43962">
    <path d="m16.521 79.031a4.2699 4.2699 0 0 0-4.27 4.2699 4.2699 4.2699 0 0 0 3.4291 4.1863l-1.2604-7.2079h0.90121l0.2003 1.0971c0.19001-0.18792 0.41086-0.33519 0.6625-0.44185 0.25677-0.11173 0.53139-0.16768 0.82411-0.16768s0.56493 0.0559 0.81656 0.16768c0.25677 0.10666 0.48017 0.25393 0.67018 0.44185 0.19001 0.18283 0.33899 0.40114 0.44683 0.65508 0.11298 0.24886 0.16943 0.51804 0.16943 0.80753s-0.05645 0.56127-0.16943 0.81521c-0.10784 0.24886-0.25682 0.46717-0.44683 0.65509-0.19001 0.18791-0.41341 0.33779-0.67018 0.44952-0.25164 0.10666-0.52385 0.16-0.81656 0.16-0.1592 0-0.31314-0.0178-0.46206-0.0534-0.14379-0.0305-0.28244-0.0737-0.41596-0.12953l0.5238 2.833a4.2699 4.2699 0 0 0 4.1374-4.268 4.2699 4.2699 0 0 0-0.06187-0.72464c-0.10442 0.0372-0.21646 0.0585-0.33388 0.0585-0.54968 0-0.99287-0.44333-0.99287-0.993 0-0.38883 0.22234-0.72343 0.54671-0.88652a4.2699 4.2699 0 0 0-3.428-1.7242zm0.48673 2.6348c-0.16433 0-0.31827 0.0306-0.46206 0.0915-0.14379 0.0609-0.26971 0.14473-0.37755 0.25139-0.10784 0.10665-0.19259 0.23103-0.25422 0.37323-0.06162 0.14221-0.09233 0.29456-0.09233 0.45708s0.03071 0.31487 0.09233 0.45707c0.06162 0.14221 0.14637 0.26672 0.25422 0.37337 0.10784 0.10666 0.23376 0.19291 0.37755 0.25894 0.14379 0.0609 0.29773 0.0915 0.46206 0.0915s0.31841-0.0306 0.4622-0.0915c0.14379-0.066 0.2697-0.15228 0.37755-0.25894 0.10784-0.10665 0.19259-0.23116 0.25422-0.37337 0.06676-0.1422 0.10001-0.29455 0.10001-0.45707s-0.03325-0.31487-0.10001-0.45708c-0.06162-0.1422-0.14637-0.26658-0.25422-0.37323-0.10784-0.10666-0.23376-0.19044-0.37755-0.25139-0.14379-0.0609-0.29786-0.0915-0.4622-0.0915z"/>
    <circle cx="20.395" cy="81.642" r=".73199"/>
   </g>
   <text transform="scale(.55161 1.8129)" x="90.191032" y="53.268406" font-family="sans-serif" font-size="7.0383px" stroke-width=".18952" style="line-height:1.25" xml:space="preserve"><tspan x="90.191032" y="53.268406" fill="#37c871" stroke-width=".18952">|</tspan></text>
  </g>
 </g>
</svg>
